<?xml version="1.0" encoding="utf-8"?>
<!-- Svg Vector Icons : http://www.onlinewebfonts.com/icon -->
<!DOCTYPE svg PUBLIC "-//W3C//DTD SVG 1.1//EN" "http://www.w3.org/Graphics/SVG/1.1/DTD/svg11.dtd">
<svg version="1.1" xmlns="http://www.w3.org/2000/svg" xmlns:xlink="http://www.w3.org/1999/xlink" x="0px" y="0px" viewBox="0 0 1000 1000" enable-background="new 0 0 1000 1000" xml:space="preserve">
<metadata> Svg Vector Icons : http://www.onlinewebfonts.com/icon </metadata>
<g><path d="M867.5,10v165.9C777.7,74.1,646.4,10,500,10C229.4,10,10,229.4,10,500s219.4,490,490,490s490-219.4,490-490H867.5c0,98.2-38.3,190.4-107.6,259.9S598.2,867.5,500,867.5c-98.2,0-190.4-38.3-259.9-107.6C170.8,690.4,132.5,598.2,132.5,500c0-98.2,38.3-190.4,107.6-259.9c69.5-69.3,161.7-107.6,259.9-107.6c98.2,0,190.4,38.3,259.9,107.6c4.8,4.8,9.6,9.8,14,14.9H622.5v122.5H990V10H867.5z"/></g>
</svg>